<svg width="30" height="30" viewBox="0 0 30 30" xmlns="http://www.w3.org/2000/svg"><title>cocktail-with-orange-slice (1)</title><path d="M25.125 9.582c2.66 0 4.821-2.135 4.821-4.764 0-2.63-2.16-4.765-4.821-4.765-2.34 0-4.34 1.65-4.75 3.926l-.036.186H.705a.659.659 0 1 0-.5 1.094l11.17 12.538c.125.141.313.22.5.22h.366v.221c.009 3.336.009 6.76 0 10.165v.22H8.545a.67.67 0 0 0-.67.662.67.67 0 0 0 .67.662h8.74c.367 0 .67-.3.67-.662a.67.67 0 0 0-.67-.661H13.59v-.221c.01-3.406.01-6.82 0-10.165v-.22h.366a.66.66 0 0 0 .5-.22l8.01-8.992.16.097a4.94 4.94 0 0 0 2.5.68zm-3.357-5.708a3.5 3.5 0 0 1 3.348-2.506c1.92 0 3.482 1.544 3.482 3.44 0 1.898-1.562 3.442-3.482 3.442a3.512 3.512 0 0 1-1.5-.335l-.268-.124 2.277-2.541a.661.661 0 0 0 .107-.706.666.666 0 0 0-.607-.388h-3.429l.072-.282zm-8.116 12.811h-1.473l-6.33-7.111h14.133l-6.33 7.111zM21.16 8.26H4.67L2.188 5.47h21.455L21.16 8.259z" fill="#C2A060"/></svg>