<svg width="35" height="30" viewBox="0 0 35 30" xmlns="http://www.w3.org/2000/svg"><title>beach-day (1)</title><path d="M31.304 22.763c1.462 0 2.58-.83 3.081-2.282a.591.591 0 0 0-.03-.451.591.591 0 0 0-.345-.297.612.612 0 0 0-.457.03.589.589 0 0 0-.3.34c-.337.986-.99 1.482-1.941 1.482-.93 0-1.792-.666-2.13-1.666a.599.599 0 0 0-.569-.4h-.022a.599.599 0 0 0-.57.4c-.345.992-1.2 1.666-2.129 1.666-.907 0-1.754-.652-2.106-1.615l-.008-.022v-5.963l.173.03a5.527 5.527 0 0 1 2.78 1.266.79.79 0 0 0 .525.193c.21 0 .42-.089.57-.237a3.29 3.29 0 0 1 2.354-.978c.9 0 1.732.348 2.361.985.158.163.39.252.622.237a.792.792 0 0 0 .758-.785c0-4.51-4.393-8.281-10-8.577l-.143-.008v-2.37a.598.598 0 0 0-.6-.593c-.33 0-.6.267-.6.593v2.348l-.142.007c-5.584.311-9.962 4.074-9.962 8.578 0 .422.33.763.75.785h.044a.828.828 0 0 0 .578-.237 3.284 3.284 0 0 1 2.36-.985 3.29 3.29 0 0 1 2.355.978c.15.148.36.237.57.237a.785.785 0 0 0 .517-.193A5.646 5.646 0 0 1 22.39 14l.173-.03v6.008l-.008.022c-.367.963-1.192 1.578-2.091 1.578-.93 0-1.792-.667-2.13-1.667a.599.599 0 0 0-.569-.4h-.022a.599.599 0 0 0-.57.4c-.345.993-1.2 1.667-2.129 1.667-.93 0-1.792-.667-2.129-1.667a.599.599 0 0 0-.57-.4h-.022a.599.599 0 0 0-.57.4c-.345.993-1.2 1.667-2.129 1.667-.952 0-1.604-.497-1.941-1.482a.589.589 0 0 0-.3-.34.612.612 0 0 0-.457-.03.591.591 0 0 0-.345.296.591.591 0 0 0-.03.452c.494 1.452 1.619 2.282 3.08 2.282.983 0 1.927-.46 2.594-1.267l.113-.14.112.14c.667.807 1.612 1.267 2.594 1.267.982 0 1.927-.46 2.594-1.267l.112-.14.113.14c.667.807 1.611 1.267 2.593 1.267a3.3 3.3 0 0 0 1.867-.593l.232-.163v2.815l-.015.03c-.39.859-1.184 1.414-2.031 1.414-.93 0-1.792-.666-2.13-1.666a.599.599 0 0 0-.569-.4h-.022a.599.599 0 0 0-.57.4c-.345.992-1.2 1.666-2.129 1.666-.93 0-1.792-.666-2.129-1.666a.599.599 0 0 0-.57-.4h-.022a.599.599 0 0 0-.57.4c-.345.992-1.2 1.666-2.129 1.666-.93 0-1.791-.666-2.129-1.666a.599.599 0 0 0-.57-.4h-.02a.599.599 0 0 0-.57.4c-.345.992-1.2 1.666-2.129 1.666-.952 0-1.604-.496-1.941-1.481a.589.589 0 0 0-.3-.341.612.612 0 0 0-.457-.03.59.59 0 0 0-.375.749c.495 1.451 1.62 2.281 3.08 2.281.983 0 1.927-.46 2.595-1.267l.112-.14.112.14c.668.808 1.612 1.267 2.594 1.267.982 0 1.927-.46 2.594-1.267l.112-.14.113.14c.667.808 1.611 1.267 2.593 1.267s1.927-.46 2.594-1.267l.113-.14.112.14c.667.808 1.612 1.267 2.594 1.267a3.26 3.26 0 0 0 1.806-.556l.233-.155v2.637c0 .326.27.593.6.593.33 0 .6-.267.6-.593v-2.74l.239.177a3.28 3.28 0 0 0 1.942.644c1.461 0 2.578-.83 3.08-2.281a.591.591 0 0 0-.03-.452.591.591 0 0 0-.344-.296.612.612 0 0 0-.458.03.589.589 0 0 0-.3.34c-.337.985-.989 1.482-1.941 1.482-.93 0-1.792-.667-2.129-1.667a.507.507 0 0 0-.03-.074l-.015-.03v-2.503l.24.163c.562.4 1.214.607 1.882.607.982 0 1.926-.46 2.593-1.267l.113-.14.112.14c.682.8 1.627 1.267 2.616 1.267zm-8.11-10.015h-.016a6.886 6.886 0 0 0-3.935 1.319l-.098.066-.09-.074a4.46 4.46 0 0 0-2.856-1.007 4.47 4.47 0 0 0-2.189.563l-.292.163.068-.319c.367-1.71 1.506-3.281 3.215-4.415 1.717-1.14 3.906-1.77 6.155-1.77h.037c2.257 0 4.446.63 6.162 1.77 1.71 1.134 2.849 2.704 3.216 4.415l.068.319-.293-.163a4.476 4.476 0 0 0-2.189-.563 4.475 4.475 0 0 0-2.856 1.007l-.09.074-.097-.066a6.822 6.822 0 0 0-3.92-1.319zM3.486 7.807c.112.512.322.978.622 1.386-.008.007-.015.007-.015.014l-1.627 1.608a.59.59 0 0 0 .428 1.007.625.625 0 0 0 .427-.17l1.627-1.608c.007-.007.007-.014.015-.014.42.296.9.51 1.424.622v2.8c0 .326.27.592.6.592.33 0 .6-.266.6-.592v-2.756a3.718 3.718 0 0 0 1.723-.666l1.642 1.622a.624.624 0 0 0 .855 0 .59.59 0 0 0 0-.837l-1.665-1.63c.293-.407.51-.866.615-1.37h2.886c.33 0 .6-.267.6-.593a.598.598 0 0 0-.6-.592h-2.826a3.672 3.672 0 0 0-.675-1.734l1.642-1.622a.59.59 0 0 0 0-.837.607.607 0 0 0-.847 0L9.295 4.059a3.687 3.687 0 0 0-1.724-.666V.63a.598.598 0 0 0-.6-.593c-.33 0-.6.267-.6.593v2.807a3.632 3.632 0 0 0-1.416.615L3.313 2.437a.607.607 0 0 0-.847 0 .59.59 0 0 0 0 .837l1.642 1.622a3.523 3.523 0 0 0-.675 1.734H.6c-.33 0-.6.266-.6.592 0 .326.27.593.6.593h2.773c.038 0 .075 0 .113-.008zM7.12 4.556c1.387 0 2.52 1.118 2.52 2.488 0 1.37-1.133 2.49-2.52 2.49-1.386 0-2.518-1.12-2.518-2.49S5.735 4.556 7.12 4.556z" fill="#C2A060"/></svg>