<svg width="53" height="70" viewBox="0 0 53 70" xmlns="http://www.w3.org/2000/svg"><title>certificate</title><g fill="#C2A060" fill-rule="evenodd"><path d="M39.375 48.125a1.094 1.094 0 0 0 0 2.188 2.19 2.19 0 0 1 2.188 2.187 1.094 1.094 0 0 0 2.187 0 4.38 4.38 0 0 0-4.375-4.375z"/><path d="M49.219 0H3.28A3.285 3.285 0 0 0 0 3.281v59.063a3.285 3.285 0 0 0 3.281 3.281h24.075a1.094 1.094 0 0 0 .887.93l2.838.513 2.507 2.598a1.094 1.094 0 0 0 1.736-.217l2.185-3.824h3.707l2.164 3.82a1.094 1.094 0 0 0 1.738.22l2.507-2.597 2.838-.513a1.094 1.094 0 0 0 .757-1.615 3.294 3.294 0 0 0 1.28-2.596V3.28A3.285 3.285 0 0 0 49.219 0zM2.187 62.344V3.28c0-.603.491-1.094 1.094-1.094H49.22c.603 0 1.093.491 1.093 1.094v59.063c0 .234-.078.46-.215.645l-3.34-5.801a8.695 8.695 0 0 0 1.368-4.688c0-4.825-3.925-8.75-8.75-8.75s-8.75 3.925-8.75 8.75c0 1.723.503 3.33 1.366 4.685l-3.633 6.252H3.281c-.603 0-1.094-.49-1.094-1.093zm37.188-3.282a6.57 6.57 0 0 1-6.563-6.562 6.57 6.57 0 0 1 6.563-6.563 6.57 6.57 0 0 1 6.563 6.563 6.57 6.57 0 0 1-6.563 6.563zm-5.226 8.035l-1.739-1.802a1.094 1.094 0 0 0-.592-.317l-1.651-.298 3.32-5.714a8.733 8.733 0 0 0 4.108 2.101l-3.446 6.03zm4.61-3.66l.612-1.07.606 1.07H38.76zm8.13 1.541a1.096 1.096 0 0 0-.593.317l-1.735 1.798-3.412-6.024a8.734 8.734 0 0 0 4.11-2.099l3.287 5.708-1.658.3z" fill-rule="nonzero"/><path d="M35 16.406a1.094 1.094 0 0 0 0-2.187H17.5a1.094 1.094 0 0 0 0 2.187H35zm5.469 3.282H12.03a1.094 1.094 0 0 0 0 2.187h28.44a1.094 1.094 0 0 0 0-2.188zM15.313 30.625h1.093a1.094 1.094 0 0 0 0-2.188h-1.093a1.094 1.094 0 0 0 0 2.188zm0 5.469h1.093a1.094 1.094 0 0 0 0-2.188h-1.093a1.094 1.094 0 0 0 0 2.188zm0 5.469h1.093a1.094 1.094 0 0 0 0-2.188h-1.093a1.094 1.094 0 0 0 0 2.188zm21.875-13.125H20.78a1.094 1.094 0 0 0 0 2.187h16.407a1.094 1.094 0 0 0 0-2.188zm0 5.468H20.78a1.094 1.094 0 0 0 0 2.188h16.407a1.094 1.094 0 0 0 0-2.188zm0 5.469H20.78a1.094 1.094 0 0 0 0 2.188h16.407a1.094 1.094 0 0 0 0-2.188zm-26.25 12.031c0 .604.49 1.094 1.093 1.094h9.844a1.094 1.094 0 0 0 0-2.188h-9.844c-.604 0-1.094.49-1.094 1.094z"/><path d="M26.25 59.063H10.828a5.486 5.486 0 0 0-4.265-4.266v-43.97a5.486 5.486 0 0 0 4.265-4.264h30.844a5.486 5.486 0 0 0 4.265 4.265V43.75a1.094 1.094 0 0 0 2.188 0V9.844c0-.604-.49-1.094-1.094-1.094a3.285 3.285 0 0 1-3.281-3.281c0-.604-.49-1.094-1.094-1.094H9.844c-.604 0-1.094.49-1.094 1.094A3.285 3.285 0 0 1 5.469 8.75c-.604 0-1.094.49-1.094 1.094V55.78c0 .604.49 1.094 1.094 1.094a3.285 3.285 0 0 1 3.281 3.281c0 .604.49 1.094 1.094 1.094H26.25a1.094 1.094 0 0 0 0-2.188z"/></g></svg>