<svg width="63" height="70" viewBox="0 0 63 70" xmlns="http://www.w3.org/2000/svg"><title>engineering</title><g fill="#C2A060" fill-rule="evenodd"><path d="M19.003 35.654a.869.869 0 0 0-.942-.185.857.857 0 0 0-.533.792v15.217a.86.86 0 0 0 .864.858h15.335c.35 0 .664-.21.798-.53a.853.853 0 0 0-.187-.934L19.003 35.654zm.253 14.967V38.33L31.64 50.62H19.256z" fill-rule="nonzero"/><path d="M62.61 5.282L58.119.824a.869.869 0 0 0-1.222 0L30.93 26.59a.859.859 0 0 0-.191.29l-2.847 7.09L16.44 22.607l2.055-2.04a.853.853 0 0 0 0-1.212.869.869 0 0 0-1.222 0l-2.055 2.04-3.448-3.422V.857A.86.86 0 0 0 10.906 0H.999a.86.86 0 0 0-.864.857v68.284A.86.86 0 0 0 1 70h9.907a.86.86 0 0 0 .864-.858v-9.377h39.671l2.413 2.395a.865.865 0 0 0 1.222 0 .853.853 0 0 0 0-1.213l-25.869-25.67 7.147-2.825a.868.868 0 0 0 .291-.19L62.611 6.495a.854.854 0 0 0 0-1.213zM10.043 68.284h-8.18v-1.526h1.485a.86.86 0 0 0 .864-.857.86.86 0 0 0-.864-.858H1.863v-2.7h1.485a.86.86 0 0 0 .864-.857.86.86 0 0 0-.864-.857H1.863v-2.7h1.485a.86.86 0 0 0 .864-.857.86.86 0 0 0-.864-.858H1.863v-2.7h1.485a.86.86 0 0 0 .864-.857.86.86 0 0 0-.864-.857H1.863v-2.7h1.485a.86.86 0 0 0 .864-.857.86.86 0 0 0-.864-.858H1.863v-2.7h1.485a.86.86 0 0 0 .864-.857.86.86 0 0 0-.864-.857H1.863v-2.7h1.485a.86.86 0 0 0 .864-.857.86.86 0 0 0-.864-.858H1.863v-2.7h1.485A.86.86 0 0 0 4.212 35a.86.86 0 0 0-.864-.857H1.863v-2.7h1.485a.86.86 0 0 0 .864-.857.86.86 0 0 0-.864-.857H1.863v-2.7h1.485a.86.86 0 0 0 .864-.858.86.86 0 0 0-.864-.857H1.863v-2.7h1.485a.86.86 0 0 0 .864-.857.86.86 0 0 0-.864-.857H1.863v-2.7h1.485a.86.86 0 0 0 .864-.857.86.86 0 0 0-.864-.858H1.863v-2.7h1.485a.86.86 0 0 0 .864-.857.86.86 0 0 0-.864-.857H1.863v-2.7h1.485a.86.86 0 0 0 .864-.857.86.86 0 0 0-.864-.858H1.863v-2.7h1.485a.86.86 0 0 0 .864-.857.86.86 0 0 0-.864-.857H1.863V1.715h8.179v66.569zm1.728-10.235V20.397l4.205 4.173-2.459 2.44a.853.853 0 0 0 0 1.212.865.865 0 0 0 1.222 0l2.459-2.44 1.924 1.91-2.459 2.44a.853.853 0 0 0 0 1.212.865.865 0 0 0 1.222 0l2.459-2.44 1.923 1.909-2.458 2.44a.853.853 0 0 0 0 1.212.865.865 0 0 0 1.222 0l2.458-2.44 1.924 1.91-2.459 2.44a.853.853 0 0 0 0 1.212.865.865 0 0 0 1.222 0l2.459-2.44 1.923 1.909-2.458 2.44a.853.853 0 0 0 0 1.212.865.865 0 0 0 1.222 0l2.458-2.44 1.924 1.91-2.459 2.44a.853.853 0 0 0 0 1.212.865.865 0 0 0 1.222 0l2.459-2.44 1.924 1.909-2.459 2.44a.853.853 0 0 0 0 1.212.865.865 0 0 0 1.222 0l2.459-2.44 1.923 1.91-2.458 2.439a.853.853 0 0 0 0 1.213.865.865 0 0 0 1.222 0l2.458-2.44 1.924 1.909-2.459 2.44a.853.853 0 0 0 0 1.212.865.865 0 0 0 1.222 0l2.459-2.44 1.923 1.91-2.458 2.439a.853.853 0 0 0 0 1.213.865.865 0 0 0 1.222 0l2.458-2.44 4.205 4.173H11.77zm23.24-28.623L56.496 8.105 57.52 9.12 36.034 30.442l-1.024-1.016zm-1.222-1.213l-1.025-1.017L54.25 5.876l1.025 1.016-21.486 21.321zm-1.93.51l2.637 2.617-4.381 1.732 1.745-4.348zM58.743 7.909l-3.27-3.245 2.035-2.02 3.27 3.246-2.035 2.02z" fill-rule="nonzero"/><path d="M57.187 63.04a.869.869 0 0 0-1.222 0 .853.853 0 0 0 0 1.213L58.63 66.9a.865.865 0 0 0 1.222 0 .853.853 0 0 0 0-1.213l-2.666-2.645zm4.777 4.74a.869.869 0 0 0-1.222.001.853.853 0 0 0 0 1.213l.054.053a.865.865 0 0 0 1.223 0 .853.853 0 0 0 0-1.212l-.055-.054zM34.325 4.502a.865.865 0 0 0 .611-.251l.138-.137a.853.853 0 0 0 0-1.213.869.869 0 0 0-1.222 0l-.138.138a.853.853 0 0 0 0 1.212c.17.167.39.251.611.251zm-4.777 4.74a.865.865 0 0 0 .611-.25l2.667-2.646a.853.853 0 0 0 0-1.213.869.869 0 0 0-1.222 0l-2.667 2.646a.853.853 0 0 0 0 1.212c.169.168.39.251.611.251zm-4.777 4.741a.865.865 0 0 0 .611-.251l2.667-2.646a.853.853 0 0 0 0-1.213.869.869 0 0 0-1.222 0L24.16 12.52a.853.853 0 0 0 0 1.213c.17.167.39.25.611.25zm-4.777 4.74a.865.865 0 0 0 .611-.251l2.667-2.646a.853.853 0 0 0 0-1.213.869.869 0 0 0-1.222 0l-2.667 2.646a.853.853 0 0 0 0 1.213c.17.167.39.25.611.25z"/></g></svg>