<svg width="11" height="20" viewBox="0 0 11 20" xmlns="http://www.w3.org/2000/svg"><title>facebook-logo</title><path d="M10.312.004L7.742 0C4.854 0 2.988 1.914 2.988 4.878v2.248H.404A.404.404 0 0 0 0 7.531v3.258c0 .223.181.404.404.404h2.584v8.222c0 .223.181.404.404.404h3.372a.404.404 0 0 0 .404-.404v-8.222h3.021c.224 0 .405-.18.405-.404V7.531a.405.405 0 0 0-.403-.405H7.168V5.22c0-.916.218-1.381 1.412-1.381l1.731-.001a.404.404 0 0 0 .404-.404V.408a.404.404 0 0 0-.403-.404z" fill="#252525" fill-rule="evenodd"/></svg>