<svg width="25" height="19" viewBox="0 0 25 19" xmlns="http://www.w3.org/2000/svg"><title>Group 2</title><g fill="#C2A060" fill-rule="evenodd"><path d="M18.525.787v14.708l-3.535-3.51a.797.797 0 0 0-1.121 0 .783.783 0 0 0 0 1.113l4.889 4.853a.797.797 0 0 0 1.12 0l4.89-4.853a.781.781 0 0 0 0-1.113.797.797 0 0 0-1.121 0l-3.536 3.51V.787A.79.79 0 0 0 19.318 0a.79.79 0 0 0-.793.787z"/><rect fill-rule="nonzero" y="2.273" width="16.667" height="1.515" rx=".758"/><rect fill-rule="nonzero" y="14.394" width="10.606" height="1.515" rx=".758"/><rect fill-rule="nonzero" y="8.333" width="13.636" height="1.515" rx=".758"/></g></svg>