<svg width="71" height="70" viewBox="0 0 71 70" xmlns="http://www.w3.org/2000/svg"><title>Garant</title><g fill="#C2A060"><path d="M55.118 41.346L49.057 26.69a1.127 1.127 0 0 0-.626-.626 1.182 1.182 0 0 0-.882 0c-.598.256-.882.91-.626 1.508l5.15 12.407-4.154-1.195c-.512-.143-1.082.085-1.338.54l-2.077 3.785-5.35-12.919c6.83-1.565 11.781-7.74 11.781-14.768 0-8.366-6.8-15.167-15.167-15.167-8.366 0-15.166 6.8-15.166 15.167 0 3.187.996 6.26 2.845 8.85L16.39 41.316c-.17.398-.085.882.2 1.224.284.341.768.455 1.195.341l5.577-1.622 2.788 5.094c.2.37.598.597 1.025.597h.057c.455-.028.825-.313.996-.711l5.662-13.687a1.182 1.182 0 0 0 0-.882 1.127 1.127 0 0 0-.626-.626 1.182 1.182 0 0 0-.882 0 1.127 1.127 0 0 0-.626.626l-4.723 11.467-2.078-3.784a1.119 1.119 0 0 0-1.337-.541l-4.155 1.195 5.691-13.744c2.818 2.76 6.687 4.354 10.614 4.354.342 0 .683 0 1.025-.029l6.487 15.68a1.2 1.2 0 0 0 1.025.71h.057c.427 0 .797-.227 1.024-.597l2.789-5.093 5.577 1.622c.427.113.882 0 1.195-.342.256-.341.342-.825.17-1.223zM35.74 2.618c7.085 0 12.833 5.748 12.833 12.833 0 7.086-5.748 12.834-12.833 12.834-7.086 0-12.833-5.748-12.833-12.834 0-7.085 5.776-12.833 12.833-12.833z"/><path d="M30.533 17.159l-.712 4.723c-.057.427.114.854.455 1.11.342.256.797.284 1.196.114l4.268-2.134 4.268 2.134a1.16 1.16 0 0 0 1.195-.114c.342-.256.54-.683.456-1.11l-.712-4.723 3.358-3.415c.313-.313.398-.768.284-1.167a1.233 1.233 0 0 0-.91-.797l-4.724-.796-2.22-4.24a1.133 1.133 0 0 0-1.024-.626c-.426 0-.825.228-1.024.626l-2.22 4.24-4.723.796c-.427.086-.768.37-.91.797-.143.399-.03.854.284 1.167l3.415 3.415zm8.394-1.224c-.256.256-.37.626-.313.996l.455 3.102-2.789-1.395a1.088 1.088 0 0 0-1.024 0l-2.789 1.395.456-3.102a1.181 1.181 0 0 0-.313-.996l-2.191-2.248 3.073-.512c.37-.057.683-.285.825-.598l1.451-2.788 1.452 2.788c.17.313.483.54.825.598l3.073.512-2.191 2.248zM69.83 40.35h-4.155V29.167c0-.655-.512-1.167-1.167-1.167H52.671l.967 2.333h9.703V40.35h-4.154c-.598 0-1.053.426-1.138.996a3.65 3.65 0 0 1-.029.967v10.5H13.146V41.488c0-.655-.512-1.167-1.166-1.167H7.825V30.305h10.073l.968-2.333H6.659c-.655 0-1.167.512-1.167 1.166v11.183H1.337c-.654 0-1.166.512-1.166 1.167v23.049c0 .654.512 1.166 1.166 1.166h4.155v3.073c0 .655.512 1.167 1.167 1.167.654 0 1.166-.512 1.166-1.167v-3.044h55.516v3.073c0 .654.513 1.167 1.167 1.167.655 0 1.167-.513 1.167-1.167v-3.073h4.154c.655 0 1.167-.512 1.167-1.167V41.516c0-.654-.512-1.166-1.167-1.166zm-1.167 23.048H2.476V42.683h8.337v11.325c0 .655.512 1.167 1.167 1.167h47.207c.654 0 1.167-.512 1.167-1.167V42.683h8.337v20.715h-.028z"/></g></svg>