<svg width="40" height="57" viewBox="0 0 40 57" xmlns="http://www.w3.org/2000/svg"><title>Group</title><g fill="#C19F5E"><path d="M20.222.115C9.556.115.89 8.815.89 19.523c0 4.239 2.444 10.708 7.778 20.523 3.555 6.47 7.11 11.823 7.555 12.27l2.667 4.015c.222.446.889.669 1.333.669.445 0 1.111-.223 1.334-.67l2.666-4.015c.445-.669 3.778-6.023 7.556-12.269 5.333-9.592 7.778-16.061 7.778-20.523C39.556 8.815 30.889.115 20.222.115zm16.222 19.408c0 3.57-2.444 10.039-7.555 18.962-3.778 6.692-7.333 12.046-7.333 12.269l-1.334 2.008-1.333-2.008c-.667-.892-4-6.023-7.333-12.046C6.666 29.785 4 23.538 4 19.746c0-8.923 7.111-16.061 16-16.061 9.111-.223 16.444 6.915 16.444 15.838z"/><path d="M20.222 8.592c-6 0-10.666 4.908-10.666 10.708s4.888 10.708 10.666 10.708C26 30.008 30.89 25.1 30.89 19.3S26.222 8.592 20.222 8.592zM28 19.523c0 4.239-3.333 7.585-7.556 7.585-4.222 0-7.555-3.346-7.555-7.585 0-4.238 3.333-7.585 7.555-7.585 4-.223 7.556 3.347 7.556 7.585z"/></g></svg>