<svg width="70" height="60" viewBox="0 0 70 60" xmlns="http://www.w3.org/2000/svg"><title>handshake (1)</title><g fill="#C19F5E" fill-rule="evenodd"><path d="M68.637 15.61L54.263 1.328A4.358 4.358 0 0 0 51.164.053a4.358 4.358 0 0 0-3.1 1.274l-3.366 3.346a4.083 4.083 0 0 0-1.015 1.619l-.133.345-16.218-2.894c-6.84-1.354-13.546 3.107-14.935 9.903l-.721 3.61c-.374 1.806 0 3.638 1.015 5.178s2.591 2.575 4.408 2.947c3.767.743 7.428-1.673 8.176-5.416l.534-2.576 7.641.664.107.106 21.855 21.717a2.17 2.17 0 0 1 0 3.08c-.855.85-2.244.85-3.099 0l-8.977-8.92a1.176 1.176 0 0 0-.828-.346c-.321 0-.615.133-.829.345a1.161 1.161 0 0 0-.347.823c0 .319.134.611.347.823l8.977 8.92c.401.399.642.957.642 1.54 0 .585-.24 1.116-.642 1.54-.854.85-2.244.85-3.099 0l-8.923-8.92a1.176 1.176 0 0 0-.829-.345c-.32 0-.614.133-.828.345a1.161 1.161 0 0 0-.347.823c0 .319.133.61.347.823l8.977 8.92c.401.399.641.956.641 1.54a2.12 2.12 0 0 1-.64 1.54 2.217 2.217 0 0 1-1.55.637c-.588 0-1.123-.239-1.55-.637l-8.977-8.92a1.176 1.176 0 0 0-.828-.345c-.321 0-.615.132-.829.345a1.165 1.165 0 0 0 0 1.646l8.977 8.92a2.17 2.17 0 0 1 0 3.08 2.21 2.21 0 0 1-1.55.637 2.147 2.147 0 0 1-1.549-.637L2.164 21.319a1.176 1.176 0 0 0-.828-.346c-.32 0-.615.133-.828.346a1.165 1.165 0 0 0 0 1.646l9.084 9.026-2.832 2.814a3.864 3.864 0 0 0-1.15 2.761 3.86 3.86 0 0 0 1.15 2.761l.828.823a3.835 3.835 0 0 0 2.378 1.115l.347.027.027.345A3.79 3.79 0 0 0 11.462 45l.828.823a3.902 3.902 0 0 0 2.378 1.115l.347.027.027.345a3.79 3.79 0 0 0 1.122 2.363l.828.823a3.835 3.835 0 0 0 2.378 1.115l.348.026.026.345a3.79 3.79 0 0 0 1.122 2.363l.829.823a3.913 3.913 0 0 0 2.778 1.142c1.042 0 2.03-.398 2.779-1.142l2.832-2.814 6.359 6.319c.855.85 1.977 1.3 3.18 1.3a4.571 4.571 0 0 0 3.179-1.3 4.48 4.48 0 0 0 1.309-2.974l.026-.398.401-.027a4.536 4.536 0 0 0 2.993-1.3A4.48 4.48 0 0 0 48.84 51l.026-.398.401-.027a4.48 4.48 0 0 0 2.993-1.3 4.48 4.48 0 0 0 1.309-2.974l.026-.398.401-.027a4.48 4.48 0 0 0 2.993-1.3 4.467 4.467 0 0 0 0-6.346l-2.539-2.522 14.08-13.991c1.817-1.646 1.817-4.407.107-6.106zM11.49 39.505a1.605 1.605 0 0 1-1.123.478 1.5 1.5 0 0 1-1.122-.478l-.828-.823a1.585 1.585 0 0 1-.48-1.115c0-.424.16-.823.48-1.115l2.672-2.655 3.072 3.054-2.671 2.654zm4.729 4.7a1.605 1.605 0 0 1-1.123.477 1.5 1.5 0 0 1-1.122-.477l-.828-.823a1.585 1.585 0 0 1-.48-1.116c0-.424.16-.823.48-1.115l2.672-2.654 3.099 3.08-2.698 2.628zm4.729 4.699a1.605 1.605 0 0 1-1.123.478 1.5 1.5 0 0 1-1.122-.478l-.828-.823a1.585 1.585 0 0 1-.48-1.115c0-.425.16-.823.48-1.115l2.672-2.655 3.099 3.08-2.698 2.628zm4.755 4.699a1.605 1.605 0 0 1-1.122.478 1.5 1.5 0 0 1-1.122-.478l-.828-.823a1.585 1.585 0 0 1-.481-1.115c0-.425.16-.823.48-1.115l2.673-2.655 3.099 3.08-2.699 2.628zm27.199-19.46l-18.115-18a1.23 1.23 0 0 0-.721-.346L24.955 15h-.108c-.56 0-1.042.398-1.149.93l-.72 3.583c-.509 2.496-2.94 4.089-5.451 3.584a4.589 4.589 0 0 1-2.94-1.964 4.535 4.535 0 0 1-.694-3.452l.722-3.584A10.306 10.306 0 0 1 19.05 7.54C21.374 6 24.153 5.469 26.878 6l15.737 2.788 2.003 1.99 15.817 15.718-7.534 7.646zm14.107-14.018l-4.836 4.805L46.355 9.212a2.006 2.006 0 0 1-.615-1.433 2 2 0 0 1 .588-1.434L49.695 3c.4-.398.908-.61 1.442-.61.561 0 1.07.212 1.443.61l14.428 14.257c.4.398.614.902.614 1.433a2.14 2.14 0 0 1-.614 1.434z" fill-rule="nonzero"/><ellipse cx="62.813" cy="19.327" rx="1.149" ry="1.142"/></g></svg>