<svg width="29" height="30" viewBox="0 0 29 30" xmlns="http://www.w3.org/2000/svg"><title>hotel (3)</title><g fill="#C2A060"><path d="M15.724 3.61a.483.483 0 0 0 .66-.106l.685-.942.687.942c.06.087.148.147.249.174l1.116.354-.7.935a.485.485 0 0 0-.093.28l.006 1.17-.323-.107a.543.543 0 0 0-.154-.02.389.389 0 0 0-.209.054.474.474 0 0 0-.235.274.557.557 0 0 0 .02.36.47.47 0 0 0 .276.234l.948.314c.047.014.101.02.148.02a.467.467 0 0 0 .471-.468l-.007-1.663.996-1.35a.49.49 0 0 0 .074-.434.482.482 0 0 0-.303-.3l-1.594-.495-.976-1.357a.455.455 0 0 0-.383-.193.455.455 0 0 0-.384.193l-1.076 1.477a.481.481 0 0 0-.08.354.42.42 0 0 0 .18.3zm5.893 5.43a.466.466 0 0 0-.471-.469h-2.55a.466.466 0 0 0-.471.468V12.5c0 .26.209.468.471.468h2.55a.466.466 0 0 0 .47-.468V9.04zm-2.55 2.992V9.507h1.608v2.525h-1.608zm2.079 2.111h-2.55a.466.466 0 0 0-.471.468v3.46c0 .261.209.468.471.468h2.55a.466.466 0 0 0 .47-.467V14.61a.466.466 0 0 0-.47-.468zm-2.08 3.46v-2.525h1.609v2.526h-1.608z"/><path d="M17.337 4.923a.482.482 0 0 0-.302-.3l-1.595-.495-.982-1.363a.455.455 0 0 0-.384-.194.455.455 0 0 0-.383.194l-.976 1.357-1.6.507a.467.467 0 0 0-.229.728l.995 1.344-.013 1.657a.45.45 0 0 0 .195.38c.08.06.181.087.276.087a.515.515 0 0 0 .14-.02l1.589-.514 1.594.521c.155.04.31.02.424-.067a.467.467 0 0 0 .195-.38l-.013-1.658.995-1.343a.534.534 0 0 0 .074-.44zm-2.004 2.78l-1.117-.368a.564.564 0 0 0-.303 0l-1.11.368.007-1.17a.442.442 0 0 0-.095-.28l-.7-.935 1.118-.355a.482.482 0 0 0 .242-.173l.686-.942.693.942a.43.43 0 0 0 .249.173l1.117.355-.7.935a.485.485 0 0 0-.094.28l.007 1.17zm-2.009-5.805l.733-.735.727.728a.463.463 0 0 0 .343.133.526.526 0 0 0 .336-.126.468.468 0 0 0 .135-.335.558.558 0 0 0-.121-.347L14.407.147A.464.464 0 0 0 14.064 0a.515.515 0 0 0-.343.134l-1.07 1.069a.47.47 0 0 0 0 .661c.189.2.491.207.673.034zM9.533 9.04a.466.466 0 0 0-.47-.469h-2.55a.466.466 0 0 0-.471.468V12.5c0 .26.208.468.47.468h2.55a.466.466 0 0 0 .471-.468V9.04zm-.941.467v2.525H6.984V9.507h1.608zm.471 4.636h-2.55a.466.466 0 0 0-.471.468v3.46c0 .261.208.468.47.468h2.55a.466.466 0 0 0 .471-.467V14.61a.466.466 0 0 0-.47-.468zm-.471.935v2.526H6.984v-2.526h1.608z"/><path d="M27.625 26.824h-1.043V14.651a.466.466 0 0 0-.471-.468h-1.736V5.61a.466.466 0 0 0-.47-.468h-3.116a.466.466 0 0 0-.47.468c0 .26.208.467.47.467h2.644v20.746H21.65v-4.57c0-.782-.645-1.423-1.433-1.423h-.087c-.787 0-1.433.641-1.433 1.423v4.57h-1.628V21.3c0-.962-.787-1.744-1.756-1.744h-2.53c-.969 0-1.756.782-1.756 1.744v5.525H9.4v-4.57c0-.782-.646-1.423-1.433-1.423h-.088c-.787 0-1.433.641-1.433 1.423v4.57H4.662V6.078h2.645a.466.466 0 0 0 .47-.467.466.466 0 0 0-.47-.468H4.19a.466.466 0 0 0-.47.468v8.572H1.99a.466.466 0 0 0-.47.468v12.173H.47a.466.466 0 0 0-.471.468v2.045c0 .26.209.467.471.467h27.154a.466.466 0 0 0 .47-.467v-2.045a.466.466 0 0 0-.47-.468zm-25.163 0V15.118h1.265v11.706H2.462zm4.932 0v-4.57c0-.267.222-.488.491-.488h.088c.269 0 .49.221.49.488v4.57H7.395zm5.389-6.334h2.53a.81.81 0 0 1 .814.809v5.525h-4.158V21.3a.81.81 0 0 1 .814-.809zm6.856 6.334v-4.57c0-.267.222-.488.49-.488h.088c.27 0 .492.221.492.488v4.57h-1.07zm6.008-11.706v11.706h-1.265V15.118h1.265zM.942 28.868V27.76h26.212v1.109H.942z"/><path d="M15.104 14.143h-2.55a.466.466 0 0 0-.47.468v3.46c0 .261.208.468.47.468h2.55a.466.466 0 0 0 .471-.467V14.61a.466.466 0 0 0-.47-.468zm-.47.935v2.526h-1.609v-2.526h1.608zm.941-4.325a.466.466 0 0 0-.47-.467.466.466 0 0 0-.472.467v1.45h-1.608v-1.45a.466.466 0 0 0-.47-.467.466.466 0 0 0-.472.467v1.918c0 .26.209.468.471.468h2.55a.466.466 0 0 0 .471-.468v-1.918zM8.438 5.395l-.013 1.657a.45.45 0 0 0 .195.38.483.483 0 0 0 .276.088c.054 0 .1-.007.148-.02l.949-.315a.444.444 0 0 0 .269-.233.465.465 0 0 0-.209-.628.43.43 0 0 0-.363-.02l-.323.106.007-1.169a.442.442 0 0 0-.095-.28l-.7-.936 1.118-.354a.482.482 0 0 0 .242-.174l.686-.942.686.942a.47.47 0 0 0 .66.107c.1-.06.168-.16.188-.294a.488.488 0 0 0-.08-.354l-1.07-1.477a.455.455 0 0 0-.384-.193.473.473 0 0 0-.383.193l-.983 1.35-1.594.515a.482.482 0 0 0-.303.3.449.449 0 0 0 .074.428l1.002 1.323z"/></g></svg>