<svg width="36" height="30" viewBox="0 0 36 30" xmlns="http://www.w3.org/2000/svg"><title>house</title><g fill="#C2A060"><path d="M35.203 11.774a.467.467 0 0 0 .758-.366V8.29c0-.14-.07-.28-.18-.366L26.246.42a1.695 1.695 0 0 0-2.124 0l-3.78 2.976V2.05a.47.47 0 0 0-.468-.467h-2.499a.47.47 0 0 0-.468.467v4.045l-2.32 1.823a.477.477 0 0 0-.18.366V11.4a.467.467 0 1 0 .757.366l.493-.39v6.172l-5.654-4.45a1.695 1.695 0 0 0-2.124 0l-7.66 6.04a.477.477 0 0 0-.18.366v3.117a.467.467 0 1 0 .757.366l.493-.39v6.413H.508a.47.47 0 0 0-.469.468c0 .257.21.467.469.467h34.984a.47.47 0 0 0 .469-.467.47.47 0 0 0-.469-.468h-.78V11.384l.491.39zM22.67 24.787a.491.491 0 0 0 0 .67.443.443 0 0 0 .36.133l.124-.008.008.124v3.312H20.35v-7.792h2.81v3.436l-.14-.007a.471.471 0 0 0-.351.132zM17.844 5.353V2.517h1.562V4.13l-1.562 1.223zm5.779 14.93h-3.749a.47.47 0 0 0-.468.468v8.26h-2.812V10.643l8.59-6.756.07.055 8.52 6.693v18.367h-9.683v-8.26c0-.25-.21-.46-.468-.46zm11.4-11.774v1.933l-9.55-7.512a.475.475 0 0 0-.289-.094.475.475 0 0 0-.289.094l-9.55 7.512V8.517L24.7 1.16a.776.776 0 0 1 .969 0l9.355 7.348zM11.91 27.452v1.558H5.974v-1.558h5.935zm0-2.494v1.559H5.974v-1.559h5.935zm0-2.493v1.558H5.974v-1.558h5.935zm.468-.935H5.505a.47.47 0 0 0-.468.467v7.013H2.226v-7.145l6.715-5.283 6.716 5.283v7.145h-2.811v-7.013a.47.47 0 0 0-.469-.467zm3.28-2.782v1.925L9.23 15.616a.47.47 0 0 0-.578 0L.976 21.662v-1.924l7.481-5.883a.776.776 0 0 1 .969 0l6.231 4.893z"/><path d="M26.746 26.205h3.749a.47.47 0 0 0 .468-.467V20.75a.47.47 0 0 0-.468-.468h-3.749a.47.47 0 0 0-.468.468v4.987c0 .257.21.467.468.467zm.469-4.052v-.935h2.811v.935h-2.811zm0 3.117v-2.182h2.811v2.182h-2.811zm-.469-7.792h3.749a.47.47 0 0 0 .468-.468v-4.987a.47.47 0 0 0-.468-.467h-3.749a.47.47 0 0 0-.468.467v4.987c0 .258.21.468.468.468zm.469-4.052v-.935h2.811v.935h-2.811zm0 3.117V14.36h2.811v2.182h-2.811zm-3.124-4.52a.47.47 0 0 0-.468-.467h-3.749a.47.47 0 0 0-.468.467v4.987c0 .258.21.468.468.468h3.749a.47.47 0 0 0 .468-.468v-4.987zm-.937 2.338v2.182h-2.811V14.36h2.811zm0-1.87v.935h-2.811v-.935h2.811z"/></g></svg>