<svg width="20" height="20" viewBox="0 0 20 20" xmlns="http://www.w3.org/2000/svg"><title>instagram-logo</title><path d="M17.833 0H1.98A1.956 1.956 0 0 0 0 1.981v15.852c0 1.114.867 1.981 1.981 1.981h15.852a1.956 1.956 0 0 0 1.981-1.981V1.98A1.956 1.956 0 0 0 17.833 0zM9.907 5.944c2.23 0 3.963 1.734 3.963 3.963 0 2.23-1.734 3.963-3.963 3.963s-3.963-1.734-3.963-3.963 1.734-3.963 3.963-3.963zm-7.43 11.889c-.248 0-.496-.248-.496-.496v-8.42h2.106c-.124.247-.124.742-.124.99 0 3.22 2.724 5.944 5.944 5.944 3.22 0 5.944-2.724 5.944-5.944 0-.248 0-.743-.123-.99h2.105v8.42c0 .248-.248.496-.496.496H2.477zM17.833 4.458c0 .248-.248.496-.496.496h-1.981c-.248 0-.495-.248-.495-.496V2.477c0-.248.247-.496.495-.496h1.981c.248 0 .496.248.496.496v1.981z" fill="#252525"/></svg>