<svg width="99" height="61" viewBox="0 0 99 61" xmlns="http://www.w3.org/2000/svg"><title>Group</title><g fill="#C2A060" fill-rule="evenodd"><path d="M97.056.693H1.36C.666.693.11 1.248.11 1.941v51.85c0 .693.556 1.248 1.25 1.248h3.89v3.743c0 .693.556 1.248 1.25 1.248h6.528c.694 0 1.25-.555 1.25-1.248v-3.743h70.139v3.743c0 .693.555 1.248 1.25 1.248h6.527c.695 0 1.25-.555 1.25-1.248v-3.743h3.89c.694 0 1.25-.555 1.25-1.248V1.94c-.278-.693-.834-1.248-1.528-1.248zM11.639 57.534H7.61V55.04h4.028v2.495zm79.028 0h-4.028V55.04h4.028v2.495zm5.139-4.99H2.61V49.77h93.195v2.773zm0-5.408H2.61v-11.23h93.195v11.23zm0-13.725H2.61v-11.23h93.195v11.23zm0-13.725H2.61V8.456h93.195v11.23zm0-13.725H2.61V3.19h93.195v2.77z" fill-rule="nonzero"/><path d="M18.306 15.25H30.25c.694 0 1.25-.555 1.25-1.248s-.556-1.247-1.25-1.247H18.306c-.695 0-1.25.554-1.25 1.247 0 .693.555 1.248 1.25 1.248zm0 13.725H30.25c.694 0 1.25-.555 1.25-1.248s-.556-1.247-1.25-1.247H18.306c-.695 0-1.25.554-1.25 1.247 0 .832.555 1.248 1.25 1.248zm0 13.864H30.25c.694 0 1.25-.555 1.25-1.248s-.556-1.248-1.25-1.248H18.306c-.695 0-1.25.555-1.25 1.248s.555 1.248 1.25 1.248zM68.028 15.25h11.944c.695 0 1.25-.555 1.25-1.248s-.555-1.247-1.25-1.247H68.028c-.695 0-1.25.554-1.25 1.247 0 .693.555 1.248 1.25 1.248zm0 13.725h11.944c.695 0 1.25-.555 1.25-1.248s-.555-1.247-1.25-1.247H68.028c-.695 0-1.25.554-1.25 1.247 0 .832.555 1.248 1.25 1.248zm0 13.864h11.944c.695 0 1.25-.555 1.25-1.248s-.555-1.248-1.25-1.248H68.028c-.695 0-1.25.555-1.25 1.248s.555 1.248 1.25 1.248z"/></g></svg>