<svg width="40" height="29" viewBox="0 0 40 29" xmlns="http://www.w3.org/2000/svg"><title>Shape</title><path d="M35.862 0H3.678C1.61 0 0 1.841 0 3.913v21.174C0 27.16 1.84 29 3.908 29h32.184C38.161 29 40 27.159 40 25.087V3.913C39.77 1.61 37.931 0 35.862 0zM20.69 15.19c-.46.46-1.38.46-2.07 0L4.369 2.762h30.575L20.69 15.19zM2.989 5.063l10.574 9.207-6.437 6.214c-.23.23-.46.46-.46.92 0 .461.23.691.46.921.46.46 1.38.46 1.84 0l6.666-6.214 1.61 1.381c.689.69 1.609.92 2.758.92.92 0 2.069-.23 2.759-.92l1.609-1.38 6.666 6.213c.46.46 1.38.46 1.84 0 .23-.23.46-.46.46-.92s-.23-.69-.46-.92l-6.437-6.215L37.47 4.603v20.254c0 .69-.46 1.15-1.15 1.15H4.139c-.69 0-1.15-.46-1.15-1.15V5.063z" fill="#C19F5E"/></svg>