<svg width="100" height="44" viewBox="0 0 100 44" xmlns="http://www.w3.org/2000/svg"><title>Shape</title><path d="M100 23.068c0-3.987-3-7.547-7-8.259C92.429 6.977 86 0 77.857 0H21.571C13.571 0 7 6.977 6.43 14.951 2.714 15.948 0 19.081 0 22.926c0 3.844 2.571 6.977 6.286 7.974v11.818c0 .712.571 1.282 1.285 1.282h85c.715 0 1.286-.57 1.286-1.282V30.9c3.572-.57 6.143-3.987 6.143-7.832zM21.429 2.848h56.428c6.572 0 12 5.838 12.429 12.246-4 .712-7 4.13-7 8.259v.854a5.163 5.163 0 0 0-2.857-.854H19.714c-1 0-2 .285-2.857.854v-.854c0-4.414-3.428-7.974-7.714-8.402.571-6.407 6-12.103 12.286-12.103zm61.857 26.058H16.714v-.285a2.86 2.86 0 0 1 2.857-2.848h60.715a2.86 2.86 0 0 1 2.857 2.848l.143.285zM8.857 41.722V30.188c0-.712-.571-1.14-1.143-1.282-2.857-.285-5-2.848-5-5.696s2.143-5.41 5-5.695h.143c1.714-.143 3.143.284 4.429 1.566 1.143.997 1.857 2.705 1.857 4.13v18.653l-5.286-.142zm7.857 0V31.469h66.572v10.253H16.714zm69.143 0V23.068c0-3.133 2.572-5.696 5.714-5.696 3.143 0 5.715 2.563 5.715 5.696 0 2.848-2.143 5.411-5 5.696-.715 0-1.143.712-1.143 1.281V41.58l-5.286.143z" fill="#C2A060"/></svg>