<svg width="40" height="64" viewBox="0 0 40 64" xmlns="http://www.w3.org/2000/svg"><title>Group</title><g fill="#C19F5E" fill-rule="evenodd"><path d="M29.111.563H11.333C5.556.563.89 5.253.89 11.06v42.433C.89 59.3 5.557 63.99 11.334 63.99h17.778c2.889 0 5.556-1.117 7.333-3.127 1.778-1.786 3.112-4.466 3.112-7.37V22.227c0-.894-.667-1.34-1.334-1.34-.889 0-1.333.67-1.333 1.34v25.906H8c-.889 0-1.333.67-1.333 1.34 0 .894.666 1.34 1.333 1.34h28.889v2.234c0 2.01-.889 4.02-2.222 5.36-1.334 1.34-3.334 2.233-5.334 2.233H11.556c-2 0-4-.893-5.334-2.233C4.89 57.067 4 55.057 4 53.047V14.41h34.444c.445 0 .667-.223.89-.447.222-.223.444-.446.444-.893v-2.68C39.556 5.253 34.888.563 29.11.563zm7.556 10.274v1.116H3.777v-1.116c0-2.01.89-4.02 2.223-5.36 1.333-1.34 3.333-2.234 5.333-2.234h17.778c2 0 4 .894 5.333 2.234 1.556 1.563 2.223 3.35 2.223 5.36z" fill-rule="nonzero"/><path d="M19.333 7.04a1.71 1.71 0 0 0-.444 1.117c0 .446.222.67.444 1.116.223.224.667.447 1.111.447.445 0 .667-.223 1.112-.447C22 9.05 22 8.603 22 8.157c0-.447-.222-.67-.444-1.117-.223-.447-.667-.447-1.112-.447-.444.224-.888.224-1.11.447zm4.889 50.25a1.71 1.71 0 0 0 .445-1.117c0-.893-.667-1.34-1.334-1.34h-6c-.889 0-1.333.67-1.333 1.34 0 .894.667 1.34 1.333 1.34h6c.445.224.667 0 .89-.223z"/></g></svg>