<svg width="53" height="60" viewBox="0 0 53 60" xmlns="http://www.w3.org/2000/svg"><title>Shape</title><path d="M8.387 7.532l2.027-2.557L5.227.919C4.04-.008 2.747-.249 1.679.27.613.78 0 1.937 0 3.439V56.56c0 1.5.613 2.658 1.68 3.172.37.18.768.267 1.177.267.774 0 1.595-.31 2.37-.918l4.728-3.699-2.027-2.557-4.651 3.636V3.536l5.11 3.996zm42.925 19.176L18.334.919C17.556.31 16.761 0 15.974 0c-1.428 0-2.867 1.063-2.867 3.439V56.56c0 2.375 1.439 3.439 2.866 3.439.788 0 1.583-.31 2.361-.92l32.978-25.788C52.384 32.454 53 31.255 53 30s-.616-2.454-1.688-3.292zm-34.928-12.92l19.794 15.476c.282.222.438.482.438.736s-.156.514-.438.736L16.384 46.21V13.788zm32.902 16.946L16.384 56.462v-6.11l21.821-17.061c1.072-.838 1.686-2.038 1.686-3.293 0-1.254-.614-2.454-1.686-3.292L16.385 9.644V3.536l32.9 25.728c.283.222.438.482.438.736 0 .252-.157.514-.437.734z" fill="#C2A060"/></svg>