<svg width="19" height="30" viewBox="0 0 19 30" xmlns="http://www.w3.org/2000/svg"><title>inclined-smartphone</title><g fill="#C2A060" fill-rule="evenodd"><path d="M13.477.054H5A4.925 4.925 0 0 0 .081 4.973l.01 20.072a4.925 4.925 0 0 0 4.918 4.919h8.477a4.91 4.91 0 0 0 3.478-1.441 4.895 4.895 0 0 0 1.441-3.478l-.009-14.793a.68.68 0 0 0-.675-.675.68.68 0 0 0-.676.675v12.352H3.315a.68.68 0 0 0-.675.675c0 .37.306.676.675.676h13.73v1.09A3.54 3.54 0 0 1 16 27.568a3.536 3.536 0 0 1-2.523 1.045H5a3.54 3.54 0 0 1-2.523-1.045 3.536 3.536 0 0 1-1.045-2.523V6.838l16.289-.01h.072a.693.693 0 0 0 .604-.604v-1.26c0-2.703-2.208-4.91-4.92-4.91zm3.568 4.919v.513H1.432v-.513c0-.955.37-1.847 1.045-2.523A3.536 3.536 0 0 1 5 1.405h8.477c.955 0 1.847.37 2.523 1.045a3.536 3.536 0 0 1 1.045 2.523z" fill-rule="nonzero"/><path d="M8.766 3.19a.675.675 0 1 0 .953.955.675.675 0 0 0-.953-.956zm2.369 23.693a.66.66 0 0 0 .198-.478.68.68 0 0 0-.675-.675h-2.82a.68.68 0 0 0-.676.675c0 .37.306.676.676.676h2.82a.697.697 0 0 0 .477-.198z"/></g></svg>