<svg width="100" height="49" viewBox="0 0 100 49" xmlns="http://www.w3.org/2000/svg"><title>Shape</title><path d="M98.295 0H1.278A1.27 1.27 0 0 0 0 1.27v8.756c0 .706.568 1.27 1.278 1.27h.995V47.73a1.27 1.27 0 0 0 1.278 1.271h6.676a1.27 1.27 0 0 0 1.279-1.27V17.65h15.056v30.08a1.27 1.27 0 0 0 1.279 1.271h6.676a1.27 1.27 0 0 0 1.278-1.27V17.65h30.54v30.08a1.27 1.27 0 0 0 1.279 1.271h6.676a1.27 1.27 0 0 0 1.278-1.27V17.65h12.926v30.08a1.27 1.27 0 0 0 1.279 1.271h6.676a1.27 1.27 0 0 0 1.278-1.27V11.296h.995a1.27 1.27 0 0 0 1.278-1.27V1.27C99.574.565 99.006 0 98.295 0zM72.727 17.793v28.806h-4.119V17.793h4.12zm-65.909 0h1.989v28.806h-4.12V11.297h.71v5.225c.143.706.711 1.27 1.421 1.27zm19.745-6.496v3.954H8.096v-3.954h18.465zm6.534 0v35.302h-4.12V11.297h4.12zM31.25 2.542v6.213H2.699V2.542H31.25zm63.494 8.755v35.302h-4.119V17.793h1.989a1.27 1.27 0 0 0 1.278-1.271v-5.225h.852zM90.2 10.026c0 .706.568 1.27 1.278 1.27v3.955H35.653v-3.954H85.37a1.27 1.27 0 0 0 1.279-1.271 1.27 1.27 0 0 0-1.279-1.271H33.807V2.542h63.21v6.213h-5.54a1.27 1.27 0 0 0-1.278 1.27z" fill="#C2A060"/></svg>