<svg width="39" height="30" viewBox="0 0 39 30" xmlns="http://www.w3.org/2000/svg"><title>store</title><g fill="#C2A060"><path d="M38.428 28.872h-1.87V11.386c1.056-.262 1.831-1.24 1.831-2.401v-7.82A1.174 1.174 0 0 0 37.206 0H1.794C1.14 0 .61.523.61 1.165v7.82c0 1.16.775 2.139 1.831 2.4v17.487H.572a.568.568 0 0 0-.572.564c0 .312.256.564.572.564h37.856a.568.568 0 0 0 .572-.564.568.568 0 0 0-.572-.564zM37.245 1.165v7.82c0 .705-.535 1.307-1.191 1.34a1.263 1.263 0 0 1-.935-.338 1.221 1.221 0 0 1-.393-.9v-7.96h2.48c.022 0 .039.018.039.038zM5.419 1.128h2.518v7.96c0 .683-.565 1.24-1.259 1.24s-1.26-.557-1.26-1.24v-7.96zm3.663 0h2.519v7.96c0 .683-.565 1.24-1.26 1.24a1.252 1.252 0 0 1-1.259-1.24v-7.96zm3.664 0h2.518v7.96c0 .683-.565 1.24-1.26 1.24a1.251 1.251 0 0 1-1.258-1.24v-7.96zm3.663 0h2.519v7.96c0 .683-.565 1.24-1.26 1.24a1.252 1.252 0 0 1-1.259-1.24v-7.96zm3.663 0h2.519v7.96c0 .683-.565 1.24-1.26 1.24a1.252 1.252 0 0 1-1.259-1.24v-7.96zm3.664 0h2.518v7.96c0 .683-.565 1.24-1.259 1.24s-1.26-.557-1.26-1.24v-7.96zm3.663 0h2.519v7.96c0 .683-.565 1.24-1.26 1.24a1.252 1.252 0 0 1-1.259-1.24v-7.96zm3.664 0h2.518v7.96c0 .683-.565 1.24-1.26 1.24a1.251 1.251 0 0 1-1.258-1.24v-7.96zM1.755 8.985v-7.82c0-.02.017-.037.039-.037h2.48v7.96c0 .343-.14.662-.393.9a1.262 1.262 0 0 1-.935.338c-.656-.034-1.19-.636-1.19-1.341zm1.832 2.403a2.396 2.396 0 0 0 1.26-.768c.441.51 1.098.835 1.831.835.733 0 1.39-.324 1.832-.836a2.414 2.414 0 0 0 1.831.836c.733 0 1.39-.324 1.832-.836a2.414 2.414 0 0 0 1.832.836c.733 0 1.39-.324 1.832-.836a2.414 2.414 0 0 0 1.831.836c.733 0 1.39-.324 1.832-.836a2.414 2.414 0 0 0 1.832.836 2.41 2.41 0 0 0 1.831-.836 2.414 2.414 0 0 0 1.832.836c.733 0 1.39-.324 1.832-.836a2.414 2.414 0 0 0 1.832.836c.732 0 1.39-.324 1.831-.836a2.414 2.414 0 0 0 1.832.836c.733 0 1.39-.324 1.831-.835a2.396 2.396 0 0 0 1.26.769v17.483h-2.519v-13.27c0-.643-.53-1.166-1.183-1.166h-7.326c-.653 0-1.183.523-1.183 1.166v13.27H3.587V11.388zM31.75 28.872h-7.404v-13.27c0-.021.017-.038.039-.038h7.326c.021 0 .039.017.039.038v13.27z"/><path d="M26.216 21.053a.568.568 0 0 0-.572.564v1.203c0 .311.256.563.572.563a.568.568 0 0 0 .573-.563v-1.203a.568.568 0 0 0-.573-.564zm-6.182-6.617H6.754a.645.645 0 0 0-.648.64v10.676c0 .352.29.639.648.639h13.28a.645.645 0 0 0 .649-.64V15.076a.645.645 0 0 0-.649-.639zm-.496 10.827H7.25v-9.7h12.288v9.7z"/></g></svg>