<svg width="21" height="20" viewBox="0 0 21 20" xmlns="http://www.w3.org/2000/svg"><title>Z_logo</title><g fill="#FFF"><path d="M20.972 1.888l-8.867 12.224a1.249 1.249 0 0 1-1.023.516l-2.057-.019 9.309-12.506-.033-.063H3.133c-.47.001-.9-.259-1.112-.672L1.436.242A.122.122 0 0 1 1.44.12a.125.125 0 0 1 .106-.06L20.02.05c.047 0 .09.026.112.068l.85 1.637a.122.122 0 0 1-.01.134z"/><path d="M.026 18.112L8.958 5.805a1.249 1.249 0 0 1 1.018-.516h2.072L2.665 17.894l.032.063h15.169c.469-.001.899.259 1.112.672l.585 1.126a.122.122 0 0 1-.004.121.125.125 0 0 1-.107.06l-18.474.012a.125.125 0 0 1-.112-.068l-.85-1.637a.122.122 0 0 1 .01-.13z"/></g></svg>